<?xml version="1.0" standalone="no"?>
<!DOCTYPE svg PUBLIC "-//W3C//DTD SVG 20010904//EN"
 "http://www.w3.org/TR/2001/REC-SVG-20010904/DTD/svg10.dtd">
<svg version="1.0" xmlns="http://www.w3.org/2000/svg"
 width="556.000000pt" height="209.000000pt" viewBox="0 0 556.000000 209.000000"
 preserveAspectRatio="xMidYMid meet">

<g transform="translate(0.000000,209.000000) scale(0.100000,-0.100000)"
fill="#000000" stroke="none">
<path d="M881 1770 c-24 -11 -59 -20 -77 -20 -51 0 -105 -32 -163 -97 -91
-102 -157 -263 -285 -694 -50 -170 -57 -139 66 -326 70 -107 84 -123 108 -123
15 0 35 9 45 20 10 11 21 17 25 15 4 -3 15 -36 25 -74 l17 -69 67 -36 c155
-81 310 -88 477 -19 24 10 44 20 44 23 0 3 -21 22 -48 42 -208 159 -411 496
-400 664 3 42 7 51 36 71 51 34 132 61 252 85 l109 21 29 -31 c71 -76 152 -35
152 77 0 31 -6 43 -38 68 -24 20 -45 50 -61 89 -61 152 -147 270 -224 309 -61
30 -97 31 -156 5z m177 -171 c45 -44 83 -130 85 -193 2 -44 20 -34 -163 -91
-155 -48 -339 -126 -345 -146 -8 -23 11 -86 29 -96 7 -5 18 -32 24 -62 21 -91
92 -239 176 -366 84 -127 121 -199 111 -215 -10 -16 -115 -10 -170 9 -68 24
-80 48 -105 221 -25 177 -43 247 -69 274 l-20 20 -15 -35 c-8 -19 -27 -77 -42
-129 -15 -52 -31 -99 -35 -103 -3 -5 -28 26 -55 68 l-47 77 31 160 c32 162 61
248 133 392 94 192 195 269 292 225 19 -9 31 -7 63 10 55 30 76 26 122 -20z"/>
<path d="M4607 1273 c-4 -3 -7 -51 -7 -105 l0 -98 45 0 45 0 0 105 0 105 -38
0 c-21 0 -42 -3 -45 -7z"/>
<path d="M1750 1195 c0 -41 -3 -75 -7 -75 -5 0 -17 7 -27 15 -12 9 -42 15 -76
15 -111 0 -190 -83 -190 -201 0 -70 36 -145 85 -178 49 -33 129 -40 180 -15
28 13 40 15 43 6 2 -7 25 -12 58 -12 l54 0 0 260 0 260 -60 0 -60 0 0 -75z
m-19 -184 c77 -78 -17 -201 -114 -149 -35 18 -46 40 -47 86 0 59 33 92 90 92
33 0 48 -6 71 -29z"/>
<path d="M3492 1228 l3 -43 58 -3 57 -3 0 46 0 45 -61 0 -60 0 3 -42z"/>
<path d="M4200 1201 c0 -65 -10 -95 -25 -71 -3 5 -24 14 -47 21 -49 13 -115
-1 -160 -32 -71 -51 -96 -188 -50 -276 45 -86 160 -127 241 -85 33 18 40 19
45 6 4 -11 19 -14 58 -12 l53 3 3 258 2 257 -60 0 -60 0 0 -69z m-50 -166 c36
-19 50 -43 50 -88 0 -72 -74 -116 -138 -83 -17 9 -36 25 -42 35 -25 47 -2 117
45 137 39 17 50 17 85 -1z"/>
<path d="M2296 1148 c-129 -36 -180 -230 -89 -339 55 -64 158 -87 220 -49 28
17 33 17 41 4 6 -11 22 -14 63 -12 l54 3 3 193 2 192 -59 0 c-33 0 -63 -4 -66
-10 -4 -6 -14 -4 -28 5 -31 20 -95 26 -141 13z m119 -113 c95 -46 57 -185 -51
-185 -39 0 -84 51 -84 95 0 46 13 71 48 89 35 19 47 19 87 1z"/>
<path d="M5035 1149 c-60 -19 -95 -65 -95 -125 0 -52 29 -80 119 -113 66 -24
85 -46 57 -66 -20 -15 -55 -8 -63 11 -4 10 -24 14 -64 14 -32 0 -59 -2 -59 -5
0 -22 33 -76 56 -92 94 -67 240 -21 259 80 11 59 -9 95 -69 123 -28 13 -58 24
-66 24 -25 0 -60 29 -54 45 8 20 51 19 62 -1 6 -11 22 -14 63 -12 48 3 54 5
51 23 -4 29 -35 68 -63 82 -36 18 -100 24 -134 12z"/>
<path d="M2896 1013 c26 -70 56 -157 68 -193 l23 -65 55 -3 56 -3 22 58 c12
32 44 120 71 196 l49 138 -62 -3 -62 -3 -31 -102 c-17 -56 -34 -105 -37 -108
-4 -4 -22 42 -40 101 l-34 109 -62 3 -61 3 45 -128z"/>
<path d="M3492 948 l3 -193 58 -3 57 -3 0 196 0 195 -60 0 -60 0 2 -192z"/>
<path d="M965 924 c-22 -7 -41 -14 -42 -14 -14 -1 5 -20 40 -41 66 -42 121
-44 195 -9 34 16 62 32 62 35 0 17 -76 36 -119 30 -26 -3 -58 -2 -72 3 -17 7
-37 6 -64 -4z"/>
<path d="M3525 596 c-21 -32 -7 -61 41 -81 28 -11 35 -19 32 -37 -3 -20 -8
-23 -45 -21 -43 2 -57 -9 -27 -21 49 -19 94 8 94 57 0 21 -9 31 -40 47 -53 27
-56 60 -5 60 19 0 35 5 35 10 0 6 -16 10 -35 10 -26 0 -39 -6 -50 -24z"/>
<path d="M3927 613 c-16 -26 -67 -167 -64 -177 2 -6 11 6 20 27 14 33 20 37
51 37 31 0 36 -4 46 -35 12 -37 30 -48 29 -17 0 9 -13 51 -28 92 -27 70 -43
92 -54 73z m28 -93 c-8 -13 -45 -13 -45 -1 0 5 5 22 11 38 l11 28 14 -28 c8
-15 12 -32 9 -37z"/>
<path d="M4280 525 l0 -95 44 0 c25 0 48 5 51 10 4 6 -8 10 -29 10 l-36 0 0
85 c0 69 -3 85 -15 85 -12 0 -15 -17 -15 -95z"/>
<path d="M4635 595 c-19 -18 -25 -35 -25 -70 0 -59 32 -95 84 -95 55 0 89 35
90 94 1 41 -3 51 -27 72 -38 32 -90 32 -122 -1z m104 -9 c18 -21 24 -77 12
-108 -9 -24 -16 -28 -50 -28 -30 0 -43 5 -51 19 -11 22 -14 90 -4 115 8 20 77
22 93 2z"/>
<path d="M5010 524 c0 -61 4 -93 10 -89 6 3 10 35 10 71 l0 65 62 -70 c34 -39
66 -71 70 -71 4 0 8 43 8 95 0 57 -4 95 -10 95 -6 0 -10 -26 -10 -58 0 -32 -3
-61 -6 -64 -3 -3 -31 22 -62 57 -31 35 -60 64 -64 64 -5 1 -8 -42 -8 -95z"/>
<path d="M1928 503 c244 -2 640 -2 880 0 240 1 41 2 -443 2 -484 0 -681 -1
-437 -2z"/>
</g>
</svg>
