<?xml version="1.0" standalone="no"?>
<!DOCTYPE svg PUBLIC "-//W3C//DTD SVG 20010904//EN"
 "http://www.w3.org/TR/2001/REC-SVG-20010904/DTD/svg10.dtd">
<svg version="1.0" xmlns="http://www.w3.org/2000/svg"
 width="250.000000pt" height="202.000000pt" viewBox="0 0 250.000000 202.000000"
 preserveAspectRatio="xMidYMid meet">

<g transform="translate(0.000000,202.000000) scale(0.100000,-0.100000)"
fill="#000000" stroke="none">
<path d="M530 2013 c-43 -16 -498 -297 -509 -315 -17 -27 -27 -874 -11 -923
12 -36 -20 -15 550 -367 683 -423 645 -401 689 -401 47 0 33 -8 730 428 464
290 497 312 506 345 6 22 8 195 5 473 l-5 439 -25 20 c-58 47 -485 298 -506
298 -13 0 -135 -68 -271 -152 -136 -83 -268 -160 -293 -171 -64 -28 -163 -33
-236 -12 -68 19 -126 52 -384 216 -188 118 -213 131 -240 122z m124 -549 c14
-5 16 -41 16 -294 0 -253 2 -289 16 -294 9 -3 56 -6 105 -6 l89 0 0 -47 c0
-27 -4 -54 -8 -61 -7 -9 -47 -12 -168 -10 l-159 3 -3 345 c-1 190 0 351 3 357
5 14 80 18 109 7z m579 -188 c21 -8 46 -21 56 -30 24 -22 30 -20 41 9 8 22 16
25 54 25 35 0 48 -5 56 -19 15 -29 14 -483 -2 -499 -16 -16 -95 -15 -105 1 -4
6 -6 20 -5 30 4 23 -3 22 -41 -7 -153 -115 -376 15 -377 219 0 79 14 126 53
176 72 95 172 130 270 95z m717 -11 c16 -20 6 -72 -23 -112 -12 -17 -71 -89
-130 -159 l-108 -129 136 -3 136 -3 -3 -52 -3 -52 -210 0 -210 0 -3 29 c-2 15
-1 39 2 51 3 12 64 92 135 176 l128 154 -131 5 -131 5 -3 39 c-6 69 -14 66
206 66 165 0 202 -3 212 -15z"/>
<path d="M1113 1160 c-109 -56 -109 -241 1 -291 52 -24 92 -24 136 0 55 29 80
73 80 143 0 33 -7 72 -15 88 -36 69 -129 97 -202 60z"/>
</g>
</svg>
